Rene Clair's Under the Roofs of Paris is one of the first French films shot in sound. The film is a relaxed melodrama where a Parisian street singer (Albert Prejean) and his friend (Edmond Greville) pursue the love of the same woman (Pola Illery). Clair chose to use sound only when needed, preferring to tell the story through his visuals as well as through his dialogue. The result is a striking film, boasting beautiful photography and sets, as well as a moving story. 

   General
      Complete name : Sous les toits de Paris.avi
      Format : AVI
      Format/Info : Audio Video Interleave
      File size : 1.22 GiB
      Duration : 1h 32mn
      Overall bit rate : 1 895 Kbps
      Writing application : VirtualDubMod 1.5.10.2 (build 2540/release)
      Writing library : VirtualDubMod build 2540/release
   Video #0
      ID : 0
      Format : MPEG-4 Visual
      Format profile : AdvancedSimple@L5
      Format settings, BVOP : Yes
      Format settings, QPel : No
      Format settings, GMC : No warppoints
      Format settings, Matrix : Default (MPEG)
      Codec ID : XVID
      Codec ID/Hint : XviD
      Duration : 1h 32mn
      Bit rate : 1 693 Kbps
      Width : 640 pixels
      Height : 480 pixels
      Display aspect ratio : 4:3
      Frame rate : 23.976 fps
      Resolution : 24 bits
      Colorimetry : 4:2:0
      Scan type : Progressive
      Bits/(Pixel*Frame) : 0.230
      Stream size : 1.09 GiB (89%)
      Writing library : XviD 1.2.1 (UTC 2008-12-04)
   Audio #1
      ID : 1
      Format : AC-3
      Format/Info : Audio Coding 3
      Codec ID : 2000
      Duration : 1h 32mn
      Bit rate mode : Constant
      Bit rate : 192 Kbps
      Channel(s) : 1 channel
      Channel positions : C
      Sampling rate : 48.0 KHz
      Stream size : 127 MiB (10%)
      Alignment : Split accross interleaves
      Interleave, duration : 42 ms (1.00 video frame)
      Interleave, preload duration : 500 ms
 
http://www.imdb.com/title/tt0021409/

French audio; English, Spanish and Portuguese subtitles

Criterion rip, posted originally at KG by charulata

Rene Clair - Sous les toits de Paris (1930)